<?xml version="1.0" standalone="no"?>
<!DOCTYPE svg PUBLIC "-//W3C//DTD SVG 20010904//EN"
 "http://www.w3.org/TR/2001/REC-SVG-20010904/DTD/svg10.dtd">
<svg version="1.0" xmlns="http://www.w3.org/2000/svg"
 width="1280.000000pt" height="1280.000000pt" viewBox="0 0 1280.000000 1280.000000"
 preserveAspectRatio="xMidYMid meet">
<metadata>
Created by potrace 1.16, written by Peter Selinger 2001-2019
</metadata>
<g transform="translate(0.000000,1280.000000) scale(0.100000,-0.100000)"
fill="#000000" stroke="none">
<path d="M2955 12794 c-16 -2 -73 -9 -125 -15 -795 -90 -1582 -525 -2098
-1157 -424 -521 -664 -1113 -721 -1787 -15 -166 -15 -6714 0 -6880 77 -906
503 -1702 1214 -2270 463 -370 1070 -615 1674 -675 148 -14 6868 -14 7017 1
1000 99 1904 677 2431 1554 220 365 363 779 430 1240 16 112 17 355 21 3505 2
2364 0 3426 -8 3520 -21 264 -67 505 -141 735 -390 1220 -1475 2099 -2748
2225 -95 9 -6866 13 -6946 4z m7395 -3194 l0 -760 -1292 0 c-1291 0 -1574 -6
-1777 -36 -487 -71 -759 -266 -862 -614 -30 -104 -38 -382 -15 -516 63 -367
291 -604 678 -704 261 -67 170 -64 1796 -67 l1472 -4 0 -759 0 -760 -2630 0
-2630 0 0 710 0 710 355 0 355 0 -1 23 c0 16 -21 35 -85 77 -47 30 -123 93
-170 140 -254 255 -410 623 -455 1073 -17 176 -7 605 19 774 140 898 631 1325
1657 1438 268 29 419 32 2013 34 l1572 1 0 -760z m-6812 -5360 c354 -85 634
-371 706 -722 18 -88 21 -247 5 -334 -64 -364 -337 -656 -696 -746 -70 -18
-116 -22 -223 -22 -158 1 -253 21 -388 85 -262 122 -459 370 -516 651 -21 99
-21 277 0 376 77 376 392 672 779 732 84 13 235 4 333 -20z m6812 -890 l0
-910 -2630 0 -2630 0 0 910 0 910 2630 0 2630 0 0 -910z"/>
</g>
</svg>
